<svg width="155" height="44" viewBox="0 0 155 44" fill="none" xmlns="http://www.w3.org/2000/svg">
<rect width="155" height="44" rx="10" fill="#EDEBDF"/>
<path d="M38.5331 23.0488L40.0488 23.4316C39.7311 24.6764 39.1581 25.627 38.33 26.2832C37.5071 26.9342 36.4993 27.2598 35.3066 27.2598C34.0722 27.2598 33.067 27.0098 32.291 26.5098C31.5201 26.0046 30.9316 25.2754 30.5253 24.3223C30.1243 23.3691 29.9238 22.3457 29.9238 21.252C29.9238 20.0592 30.1503 19.0202 30.6035 18.1348C31.0618 17.2441 31.7102 16.5697 32.5488 16.1113C33.3925 15.6478 34.3196 15.416 35.33 15.416C36.4759 15.416 37.4394 15.7077 38.2206 16.291C39.0019 16.8743 39.5462 17.6947 39.8535 18.752L38.3613 19.1035C38.0956 18.2702 37.7102 17.6634 37.205 17.2832C36.6998 16.903 36.0644 16.7129 35.2988 16.7129C34.4186 16.7129 33.6816 16.9238 33.0878 17.3457C32.4993 17.7676 32.0852 18.3353 31.8456 19.0488C31.6061 19.7572 31.4863 20.4889 31.4863 21.2441C31.4863 22.2181 31.6269 23.0697 31.9081 23.7988C32.1946 24.5228 32.6373 25.0645 33.2363 25.4238C33.8352 25.7832 34.4837 25.9629 35.1816 25.9629C36.0305 25.9629 36.7493 25.7181 37.3378 25.2285C37.9264 24.7389 38.3248 24.0124 38.5331 23.0488ZM41.8613 27.0645V15.6113H43.3769V25.7129H49.0175V27.0645H41.8613ZM51.0878 27.0645V15.6113H52.6035V27.0645H51.0878ZM63.455 23.0488L64.9706 23.4316C64.6529 24.6764 64.08 25.627 63.2519 26.2832C62.429 26.9342 61.4212 27.2598 60.2285 27.2598C58.9941 27.2598 57.9889 27.0098 57.2128 26.5098C56.442 26.0046 55.8535 25.2754 55.4472 24.3223C55.0462 23.3691 54.8456 22.3457 54.8456 21.252C54.8456 20.0592 55.0722 19.0202 55.5253 18.1348C55.9837 17.2441 56.6321 16.5697 57.4706 16.1113C58.3144 15.6478 59.2415 15.416 60.2519 15.416C61.3977 15.416 62.3613 15.7077 63.1425 16.291C63.9238 16.8743 64.468 17.6947 64.7753 18.752L63.2831 19.1035C63.0175 18.2702 62.6321 17.6634 62.1269 17.2832C61.6217 16.903 60.9863 16.7129 60.2206 16.7129C59.3404 16.7129 58.6035 16.9238 58.0097 17.3457C57.4212 17.7676 57.0071 18.3353 56.7675 19.0488C56.5279 19.7572 56.4081 20.4889 56.4081 21.2441C56.4081 22.2181 56.5488 23.0697 56.83 23.7988C57.1165 24.5228 57.5592 25.0645 58.1581 25.4238C58.7571 25.7832 59.4055 25.9629 60.1035 25.9629C60.9524 25.9629 61.6712 25.7181 62.2597 25.2285C62.8482 24.7389 63.2467 24.0124 63.455 23.0488ZM66.7831 27.0645V15.6113H68.2988V21.291L73.9863 15.6113H76.041L71.2363 20.252L76.2519 27.0645H74.2519L70.1738 21.2676L68.2988 23.0957V27.0645H66.7831ZM82.0175 27.0645V15.6113H83.5331V20.3145H89.4863V15.6113H91.0019V27.0645H89.4863V21.666H83.5331V27.0645H82.0175ZM93.5644 27.0645V15.6113H101.846V16.9629H95.08V20.4707H101.416V21.8145H95.08V25.7129H102.111V27.0645H93.5644ZM104.228 27.0645V15.6113H109.307C110.327 15.6113 111.103 15.7155 111.635 15.9238C112.166 16.127 112.59 16.4889 112.908 17.0098C113.226 17.5306 113.385 18.1061 113.385 18.7363C113.385 19.5488 113.122 20.2337 112.596 20.791C112.07 21.3483 111.257 21.7025 110.158 21.8535C110.559 22.0462 110.864 22.2363 111.072 22.4238C111.515 22.8301 111.934 23.3379 112.33 23.9473L114.322 27.0645H112.416L110.9 24.6816C110.458 23.9941 110.093 23.4681 109.807 23.1035C109.52 22.7389 109.262 22.4837 109.033 22.3379C108.809 22.1921 108.58 22.0905 108.346 22.0332C108.174 21.9967 107.893 21.9785 107.502 21.9785H105.744V27.0645H104.228ZM105.744 20.666H109.002C109.695 20.666 110.236 20.5957 110.627 20.4551C111.018 20.3092 111.314 20.0801 111.518 19.7676C111.721 19.4499 111.822 19.1061 111.822 18.7363C111.822 18.1947 111.624 17.7493 111.228 17.4004C110.838 17.0514 110.218 16.877 109.369 16.877H105.744V20.666ZM115.799 27.0645V15.6113H124.08V16.9629H117.314V20.4707H123.65V21.8145H117.314V25.7129H124.346V27.0645H115.799Z" fill="#271FCE"/>
</svg>
