<?xml version="1.0" encoding="utf-8"?>
<!-- Generator: Adobe Illustrator 29.0.0, SVG Export Plug-In . SVG Version: 9.03 Build 54978)  -->
<svg version="1.0" id="Figurer_copy" xmlns="http://www.w3.org/2000/svg" xmlns:xlink="http://www.w3.org/1999/xlink" x="0px"
	 y="0px" viewBox="0 0 350 400" style="enable-background:new 0 0 350 400;" xml:space="preserve">
<style type="text/css">
	.st0{fill:none;stroke:#1A897C;stroke-miterlimit:10;}
	.st1{fill:#1A1A1A;stroke:#000000;stroke-miterlimit:10;}
	.st2{fill:#FF00FF;}
	.st3{font-family:'ArialMT';}
	.st4{font-size:44.5824px;}
</style>
<path class="st0" d="M125,119c-0.33,0-0.67,0-1,0"/>
<path class="st1" d="M91.03,0.32c32.3-3.84,41.05,27.99,86.66,29.07c40.88,0.97,47.41-24.3,76.46-18.16
	c45.96,9.7,96.57,87.01,84.11,148.95c-8.44,41.96-45.62,75.9-71.37,65.4c-29.17-11.91-38.05-78.62-43.33-76.29
	c-8.02,3.52,38.89,145.6,2.55,207.07c-27.92,47.22-103.55,44.56-124.89,0c-27.51-57.43,36.51-181.69,20.39-196.18
	c-5.73-5.16-13.69,10.68-33.13,18.16C55.64,191,10.73,171.91,1.82,138.38C-10.33,92.71,40.55,6.34,91.03,0.32z"/>
<text transform="matrix(0.68 0 0 1 114.1074 88.0703)"><tspan x="0" y="0" class="st2 st3 st4">BRAT</tspan><tspan x="0" y="53.5" class="st2 st3 st4">SUMMER</tspan></text>
</svg>
