<?xml version="1.0" encoding="utf-8"?>
<!-- Generator: Adobe Illustrator 29.0.0, SVG Export Plug-In . SVG Version: 9.03 Build 54978)  -->
<svg version="1.0" id="Figurer_copy" xmlns="http://www.w3.org/2000/svg" xmlns:xlink="http://www.w3.org/1999/xlink" x="0px"
	 y="0px" viewBox="0 0 350 400" style="enable-background:new 0 0 350 400;" xml:space="preserve">
<style type="text/css">
	.st0{fill:none;stroke:#1A897C;stroke-miterlimit:10;}
	.st1{fill:#1A1A1A;}
	.st2{fill:#FF00FF;}
	.st3{font-family:'ArialMT';}
	.st4{font-size:31.29px;}
	.st5{font-size:45.8652px;}
</style>
<path class="st0" d="M125,119c-0.33,0-0.67,0-1,0"/>
<path class="st1" d="M256.88,1.01c-9.21-6.17-21.23,18.11-47.88,14.16c-16.91-2.5-19.89-13.44-26.6-10.62
	c-22.44,9.44,14.52,130.1,2.65,286.72c-2.02,26.74-6.87,72.99,10.64,88.5c7.88,6.99,20.44,7.85,26.6,0
	c13.66-17.39-7.3-73.35-5.32-74.34c1.76-0.89,8.25,48.34,34.58,74.34c28.52,28.14,78.18,26.88,93.11-3.54
	c4.42-9.03,8.04-25.2,2.65-35.41c-11.7-22.19-51.5,11.25-77.14-10.62c-9.42-8.02-19.62-25.82-21.28-99.12
	C246,103.07,273.82,12.36,256.88,1.01z"/>
<path class="st1" d="M93.12,2.2c9.21-6.17,21.23,18.11,47.88,14.16c16.91-2.5,19.89-13.44,26.6-10.62
	c22.44,9.44-14.52,130.1-2.65,286.72c2.02,26.74,6.87,72.99-10.64,88.5c-7.88,6.99-20.44,7.85-26.6,0
	c-13.66-17.39,7.3-73.35,5.32-74.34c-1.76-0.89-8.25,48.34-34.58,74.34c-28.52,28.14-78.18,26.88-93.11-3.54
	c-4.42-9.03-8.04-25.2-2.65-35.41c11.7-22.19,51.5,11.25,77.14-10.62c9.42-8.02,19.62-25.82,21.28-99.12
	C104,104.26,76.18,13.55,93.12,2.2z"/>
<text transform="matrix(0.1937 2.1351 0.9877 -0.1566 130.432 53.5764)" class="st2 st3 st4">BRAT</text>
<text transform="matrix(-0.195 1.4566 -0.9943 -0.1068 221.779 53.5761)" class="st2 st3 st5">BRAT</text>
</svg>
