<?xml version="1.0" encoding="utf-8"?>
<!-- Generator: Adobe Illustrator 29.0.0, SVG Export Plug-In . SVG Version: 9.03 Build 54978)  -->
<svg version="1.0" id="Figurer_copy" xmlns="http://www.w3.org/2000/svg" xmlns:xlink="http://www.w3.org/1999/xlink" x="0px"
	 y="0px" viewBox="0 0 350 400" style="enable-background:new 0 0 350 400;" xml:space="preserve">
<style type="text/css">
	.st0{fill:none;stroke:#1A897C;stroke-miterlimit:10;}
	.st1{fill:#130114;}
	.st2{fill:#FF00FF;}
	.st3{font-family:'ArialMT';}
	.st4{font-size:36.7283px;}
</style>
<path class="st0" d="M125,119c-0.33,0-0.67,0-1,0"/>
<path class="st1" d="M59.86,1.41c20.25-6.36,28.83,10.83,73.81,12.64C178,15.84,194.91,0.16,214.51,1.41
	c92.96,5.87,151.9,386.37,105.44,398.32c-14.95,3.85-28.03-33.77-80.84-44.26c-30.57-6.07-45.81,2.64-63.27-9.48
	c-24.91-17.3-11.72-47.4-31.63-56.9c-25.77-12.29-62.29,31.22-87.87,18.97c-10.34-4.96-11.71-15.59-21.09-56.9
	c-13.97-61.57-14.89-55.4-17.57-72.71C8.62,119.96,13.89,15.84,59.86,1.41z"/>
<text transform="matrix(2.9163 1.9714 -0.5794 0.815 125.0003 233.1453)" class="st2 st3 st4">360</text>
</svg>
