<?xml version="1.0" encoding="utf-8"?>
<!-- Generator: Adobe Illustrator 29.0.0, SVG Export Plug-In . SVG Version: 9.03 Build 54978)  -->
<svg version="1.0" id="Figurer_copy" xmlns="http://www.w3.org/2000/svg" xmlns:xlink="http://www.w3.org/1999/xlink" x="0px"
	 y="0px" viewBox="0 0 350 400" style="enable-background:new 0 0 350 400;" xml:space="preserve">
<style type="text/css">
	.st0{fill:#E7FF00;}
	.st1{fill:#F06CF4;}
</style>
<path class="st0" d="M122.59,6.91c8.52,6.69,21.18,14.39,36.67,15.19c20.6,1.06,28.33-10.98,44.01-15.19
	c13.58-3.65,21.8,1.63,84.87,53.16c48.33,39.48,62.69,52.07,61.82,66.45c-0.79,13.15-13.31,11.11-30.39,39.87
	c-15.38,25.91-14.06,42.44-25.15,49.36c-16.02,10.01-33.94-15.04-36.67-18.99c-20.29-29.27-18.95-70.85-24.1-70.25
	c-9.35,1.09-27.41,139.51,6.29,199.35c9.12,16.19,19.75,22.58,18.86,34.17c-1.82,23.87-49.37,29.9-53.44,30.38
	c-26.77,3.13-25.39-7.48-56.58-5.7c-17.76,1.02-31.73,5.23-55.53,0c-17.77-3.9-23.45-9.21-25.15-17.09
	c-3.02-13.97,7.33-32.04,13.62-45.57c30.99-66.61,33-171.99,22-182.26c-8.05-7.52-18.52,40.11-44.01,41.77
	c-22.52,1.46-41.09-33.98-47.15-45.57C4.51,120.62-0.86,110.37,0,98.04c1.32-19.1,16.66-29.91,52.39-51.26
	C70.85,35.75,94.6,21.99,122.59,6.91z"/>
<path class="st1" d="M130,74c-6.43,0-6.45,10,0,10C136.43,84,136.45,74,130,74z"/>
<path class="st1" d="M150,158c-6.43,0-6.45,10,0,10C156.43,168,156.45,158,150,158z"/>
<path class="st1" d="M123,205c-6.43,0-6.45,10,0,10C129.43,215,129.45,205,123,205z"/>
<path class="st1" d="M188,345c-6.43,0-6.45,10,0,10C194.43,355,194.45,345,188,345z"/>
<path class="st1" d="M134,357c-6.43,0-6.45,10,0,10C140.43,367,140.45,357,134,357z"/>
<path class="st1" d="M174,283c-6.43,0-6.45,10,0,10C180.43,293,180.45,283,174,283z"/>
<path class="st1" d="M148,248c-6.43,0-6.45,10,0,10C154.43,258,154.45,248,148,248z"/>
<path class="st1" d="M119,307c-6.43,0-6.45,10,0,10C125.43,317,125.45,307,119,307z"/>
<path class="st1" d="M92,352c-6.43,0-6.45,10,0,10C98.43,362,98.45,352,92,352z"/>
<path class="st1" d="M222,363c-6.43,0-6.45,10,0,10C228.43,373,228.45,363,222,363z"/>
<path class="st1" d="M202,203c-6.43,0-6.45,10,0,10C208.43,213,208.45,203,202,203z"/>
<path class="st1" d="M211,269c-6.43,0-6.45,10,0,10C217.43,279,217.45,269,211,269z"/>
<path class="st1" d="M176,209c-6.43,0-6.45,10,0,10C182.43,219,182.45,209,176,209z"/>
<path class="st1" d="M188,154c-6.43,0-6.45,10,0,10C194.43,164,194.45,154,188,154z"/>
<path class="st1" d="M204,105c-6.43,0-6.45,10,0,10C210.43,115,210.45,105,204,105z"/>
<path class="st1" d="M212.61,3c-6.99,2.75-13.82,5.88-20.35,9.6c-3.31,1.89-6.59,4.71-10.1,6.19c-3.71,1.57-8.51,1.24-12.46,1.58
	c-7.52,0.64-15.84,2.41-23.2,0.18c-7.33-2.22-13.54-7.04-18.49-12.76c-4.22-4.87-11.27,2.23-7.07,7.07
	c5.25,6.06,11.74,10.91,19.18,13.97c8.53,3.51,16.84,2.63,25.82,1.86c8.69-0.74,17.05-0.5,24.57-5.33
	c5.47-3.51,11.16-6.65,17.04-9.4C206.4,18.92,207.88,23,212,23c5.8,0,6.38-8.12,1.72-9.72c0.52-0.21,1.03-0.43,1.56-0.64
	C221.19,10.31,218.62,0.64,212.61,3z"/>
<path class="st1" d="M177,64c-6.43,0-6.45,10,0,10C183.43,74,183.45,64,177,64z"/>
<path class="st1" d="M233,58c-6.43,0-6.45,10,0,10C239.43,68,239.45,58,233,58z"/>
<path class="st1" d="M274,123c-6.43,0-6.45,10,0,10C280.43,133,280.45,123,274,123z"/>
<path class="st1" d="M272,177c-6.43,0-6.45,10,0,10C278.43,187,278.45,177,272,177z"/>
<path class="st1" d="M321,141c-6.43,0-6.45,10,0,10C327.43,151,327.45,141,321,141z"/>
<path class="st1" d="M284,75c-6.43,0-6.45,10,0,10C290.43,85,290.45,75,284,75z"/>
<path class="st1" d="M250,85c-6.43,0-6.45,10,0,10C256.43,95,256.45,85,250,85z"/>
<path class="st1" d="M231,108c-6.43,0-6.45,10,0,10C237.43,118,237.45,108,231,108z"/>
<path class="st1" d="M122,122c-6.43,0-6.45,10,0,10C128.43,132,128.45,122,122,122z"/>
<path class="st1" d="M98,39c-6.43,0-6.45,10,0,10C104.43,49,104.45,39,98,39z"/>
<path class="st1" d="M134,35c-6.43,0-6.45,10,0,10C140.43,45,140.45,35,134,35z"/>
<path class="st1" d="M68,79c-6.43,0-6.45,10,0,10C74.43,89,74.45,79,68,79z"/>
<path class="st1" d="M30,91c-6.43,0-6.45,10,0,10C36.43,101,36.45,91,30,91z"/>
<path class="st1" d="M48,147c-6.43,0-6.45,10,0,10C54.43,157,54.45,147,48,147z"/>
<path class="st1" d="M42,96c-6.43,0-6.45,10,0,10C48.43,106,48.45,96,42,96z"/>
<path class="st1" d="M44,120c-6.43,0-6.45,10,0,10C50.43,130,50.45,120,44,120z"/>
<path class="st1" d="M106,111c-6.43,0-6.45,10,0,10C112.43,121,112.45,111,106,111z"/>
<path class="st1" d="M87,116c-6.43,0-6.45,10,0,10C93.43,126,93.45,116,87,116z"/>
<path class="st1" d="M112,82c-6.43,0-6.45,10,0,10C118.43,92,118.45,82,112,82z"/>
<path class="st1" d="M39,61c-6.43,0-6.45,10,0,10C45.43,71,45.45,61,39,61z"/>
<path class="st1" d="M84,47c-6.43,0-6.45,10,0,10C90.43,57,90.45,47,84,47z"/>
<path class="st1" d="M97,74c-6.43,0-6.45,10,0,10C103.43,84,103.45,74,97,74z"/>
<path class="st1" d="M168,124c-6.43,0-6.45,10,0,10C174.43,134,174.45,124,168,124z"/>
<path class="st1" d="M214,61c-6.43,0-6.45,10,0,10C220.43,71,220.45,61,214,61z"/>
<path class="st1" d="M168,38c-6.43,0-6.45,10,0,10C174.43,48,174.45,38,168,38z"/>
<path class="st1" d="M158,121c-6.43,0-6.45,10,0,10C164.43,131,164.45,121,158,121z"/>
<path class="st1" d="M155,98c-6.43,0-6.45,10,0,10C161.43,108,161.45,98,155,98z"/>
<path class="st1" d="M307.82,119.67c-0.24-0.85-0.67-1.58-1.29-2.21c-0.34-0.26-0.67-0.52-1.01-0.78c-0.78-0.45-1.62-0.68-2.52-0.68
	h-1c-0.69-0.03-1.33,0.12-1.93,0.43c-0.62,0.2-1.16,0.55-1.61,1.03c-0.49,0.45-0.83,0.99-1.03,1.61c-0.31,0.6-0.46,1.24-0.43,1.93
	c0.06,0.44,0.12,0.89,0.18,1.33c0.24,0.85,0.67,1.58,1.29,2.21c0.34,0.26,0.67,0.52,1.01,0.78c0.78,0.45,1.62,0.68,2.52,0.68h1
	c0.69,0.03,1.33-0.12,1.93-0.43c0.62-0.2,1.16-0.55,1.61-1.03c0.49-0.45,0.83-0.99,1.03-1.61c0.31-0.6,0.46-1.24,0.43-1.93
	C307.94,120.56,307.88,120.11,307.82,119.67z"/>
<path class="st1" d="M122,153c-6.43,0-6.45,10,0,10C128.43,163,128.45,153,122,153z"/>
<path class="st1" d="M136,319c-6.43,0-6.45,10,0,10C142.43,329,142.45,319,136,319z"/>
<path class="st1" d="M350.49,113.26c-3.57-5.32-12.23-0.32-8.63,5.05c2.93,4.37-1.99,10.59-4.29,14.31
	c-3.19,5.17-6.65,10.19-10.44,14.93c-6.74,8.45-15.65,15.88-20.27,25.82c-4.65,10.02-2.02,22.13-9.33,31.02
	c-1.67,2.03-3.67,3.83-5.94,5.16c-3.22,1.89-4.59,1-7.5-0.89c-5.43-3.54-10.83-7.12-16.24-10.67c-5.39-3.54-10.41,5.11-5.05,8.63
	c6.4,4.21,12.76,9.32,19.62,12.73c5.68,2.83,11.19,1.06,16.11-2.41c5.2-3.67,9.27-8.73,11.73-14.6c2.78-6.66,2.3-13.78,4.13-20.65
	c1.76-6.62,6.41-11.82,10.9-16.79c4.72-5.23,9.28-10.55,13.46-16.23C345.23,139.91,358.1,124.6,350.49,113.26z"/>
<path class="st1" d="M71.84,172.6c-16.1,5.11-34.78-8.75-44.25-20.68c-5.47-6.89-9.55-14.83-13.31-22.74
	c-3.92-8.24-7.58-16.56-9.75-25.45c-1.53-6.25-11.17-3.6-9.64,2.66c2.51,10.26,6.93,19.93,11.51,29.41
	c4.45,9.2,9.52,18.17,16.35,25.84c11.94,13.42,33.23,26.5,51.75,20.62C80.61,180.3,78,170.64,71.84,172.6z"/>
<path class="st1" d="M265.3,357.45c-3.53-5.35-12.19-0.35-8.63,5.05c1.34,2.03-17.16,10.9-19.21,11.91
	c-7.54,3.73-15.37,6.93-23.6,8.73c-17.25,3.79-33.71-2.68-50.83-4.05c-16.23-1.3-32.52,0.22-48.76-0.57
	c-8.04-0.39-16.02-1.39-23.74-3.76c-4.55-1.39-17.84-5.44-15.5-12.4c2.06-6.11-7.6-8.73-9.64-2.66
	c-4.94,14.65,14.09,22.47,24.92,25.39c15.42,4.16,31.61,3.75,47.44,3.53c7.85-0.11,15.72-0.19,23.56,0.34
	c8.72,0.59,17.12,2.58,25.71,4.07c16.4,2.84,31.53,0.48,46.8-6c8.41-3.57,16.52-7.88,24.44-12.41
	C264.36,371.12,270,364.58,265.3,357.45z"/>
</svg>
