<?xml version="1.0" encoding="utf-8"?>
<!-- Generator: Adobe Illustrator 29.0.0, SVG Export Plug-In . SVG Version: 9.03 Build 54978)  -->
<svg version="1.0" id="Figurer_copy" xmlns="http://www.w3.org/2000/svg" xmlns:xlink="http://www.w3.org/1999/xlink" x="0px"
	 y="0px" viewBox="0 0 350 400" style="enable-background:new 0 0 350 400;" xml:space="preserve">
<style type="text/css">
	.st0{fill:#1A897C;}
	.st1{fill:none;stroke:#1A897C;stroke-miterlimit:10;}
</style>
<path class="st0" d="M276,249c-30.64-106.96,43.35-206.23,16-229c-14.44-12.02-32.3,9.14-114,13c-13.61,0.64-28.51,1.3-48.16-0.03
	C64.89,28.56,51.66,9.41,37,18C4.63,36.96,80.59,140.42,49,261c-15.71,59.95-47.66,85.49-33,108c18.65,28.63,98.05,29.8,131-8
	c50.67-58.12-22.32-192.52,10-208c6.67-3.2,15.38-0.14,20,3c17.37,11.82,7.41,45.67,7,81c-0.06,5.16-0.04,100.15,54,136
	c33.44,22.18,86.75,21.17,99,0C351.26,348.37,296.33,319.94,276,249z"/>
<path class="st1" d="M125,119c-0.33,0-0.67,0-1,0"/>
<path class="st1" d="M100.26,119.09c-2.91,8.32,1.61,18.51,9.73,21.93"/>
<path class="st0" d="M361,181c-6.43,0-6.45,10,0,10C367.43,191,367.45,181,361,181z"/>
<path class="st0" d="M442,169c-6.43,0-6.45,10,0,10C448.43,179,448.45,169,442,169z"/>
<path class="st0" d="M-221-17c-6.43,0-6.45,10,0,10C-214.57-7-214.55-17-221-17z"/>
</svg>
