<?xml version="1.0" encoding="utf-8"?>
<!-- Generator: Adobe Illustrator 29.0.0, SVG Export Plug-In . SVG Version: 9.03 Build 54978)  -->
<svg version="1.0" id="Lag_1" xmlns="http://www.w3.org/2000/svg" xmlns:xlink="http://www.w3.org/1999/xlink" x="0px" y="0px"
	 viewBox="0 0 1920 1080" style="enable-background:new 0 0 1920 1080;" xml:space="preserve">
<style type="text/css">
	.st0{fill:#C7B299;}
	.st1{fill:#FFFFFF;}
	.st2{fill:#333333;}
	.st3{fill:#998675;}
	.st4{fill:#67272D;stroke:#55002D;stroke-miterlimit:10;}
	.st5{fill:none;stroke:#55002D;stroke-miterlimit:10;}
	.st6{fill:none;stroke:#998675;stroke-miterlimit:10;}
</style>
<g>
	<path class="st0" d="M242.56,856.69c5.16-6.23,18.53,8.27,38.64,7.28c17.45-0.86,27.85-12.79,32.92-7.28
		c1.23,1.33,1.67,6.23,2.51,15.98c0.71,8.23,1.05,12.38,0.35,13.88c-2.93,6.32-13.34,4.62-36.49,4.37
		c-26.01-0.28-38.07,1.6-40.79-5.1c-0.58-1.44-0.15-1.84,0.95-13.15C242.01,858.73,241.47,858.01,242.56,856.69z"/>
	<path class="st1" d="M246.3,926.01c2.7-1.71,5.25,2,11.59,1.66c5.88-0.32,7.9-3.73,10.05-2.49c3.2,1.85,0.87,10.66,0,21.6
		c-1.83,23.05,4.96,28.35,0,34.9c-3.32,4.39-13.55,4.31-34,4.15c-2.31-0.02-5.56-0.09-7.73-2.49c-3.72-4.13-2.94-13.7,1.55-18.28
		c0,0,2.38-2.43,18.54-4.15l0,0c0,0-2.17-10.44-2.32-21.6C243.88,931.85,243.87,927.54,246.3,926.01z"/>
	<path class="st1" d="M314.34,930.74c-2.4-1.71-4.67,2-10.31,1.66c-5.23-0.32-7.03-3.73-8.93-2.49c-2.84,1.85-0.77,10.66,0,21.6
		c1.63,23.05-4.41,28.35,0,34.9c2.96,4.39,12.05,4.31,30.24,4.15c2.05-0.02,4.95-0.09,6.87-2.49c3.31-4.13,2.62-13.7-1.37-18.28
		c0,0-2.11-2.43-16.49-4.15l0,0c0,0,1.93-10.44,2.06-21.6C316.49,936.58,316.5,932.27,314.34,930.74z"/>
	<path class="st0" d="M297.07,932.49c-2.03,2.28-1.99,7.11,0,9.14c1.32,1.35,2.51,0.5,8.27,0.83c5.25,0.3,6.38,1.12,7.52,0
		c1.86-1.83,1.54-6.78-0.75-9.14c-1.12-1.15-2.77-1.34-6.02-1.66C301.02,931.16,298.48,930.91,297.07,932.49z"/>
	<path class="st0" d="M247.89,931.5c-2.03,2.28-1.99,7.11,0,9.14c1.32,1.35,2.51,0.5,8.27,0.83c5.25,0.3,6.38,1.12,7.52,0
		c1.86-1.83,1.54-6.78-0.75-9.14c-1.12-1.15-2.77-1.34-6.02-1.66C251.84,930.16,249.3,929.91,247.89,931.5z"/>
	<path class="st2" d="M236.53,887.17c4.02,0.88,9.41,1.94,15.8,2.82c4.61,0.64,17.47,2.37,30.81,1.88
		c27.54-1,37.27-10.74,42.66-3.77c2.82,3.65,0.1,6.24,1.58,27.31c1.02,14.58,2.73,19.02,0,22.6c-2.24,2.94-5.02,2.07-18.96,1.88
		c-15.94-0.21-20.02,0.82-22.12-2.82c-3.09-5.35,1.51-14.88-1.58-16.95c-0.69-0.46-1.68-0.49-2.37,0
		c-2.96,2.08,2.02,11.64-0.79,16.95c-2.66,5.02-9.93,1.75-28.44,1.88c-13.18,0.1-17.47,1.81-19.75-1.88
		c-2.46-3.99,1.55-7.56,1.58-22.6c0.01-6.26-0.68-9.48,0-16.95C235.35,893.09,236.02,889.5,236.53,887.17z"/>
	<path d="M188.89,482.08c-35.24,6.31-68.26,43.47-72.44,91.05c-1.73,19.76,0.21,43.45-11.38,55.78c-9.02,9.6-22.01,7.1-33.02,11.57
		c-12.53,5.08-22.73,21.42-22.08,39.03c1.07,29.11,29.44,43.68,49.85,34.02c5.18,13.96-1.97,33.35-13.35,36.21
		c-5.6,1.41-11.36-0.66-17.05-0.37c-10.69,0.54-20.83,10.21-24.76,23.62c-3.93,13.41-1.44,29.81,6.09,40.05
		c5.54,7.53,13.17,11.56,19.25,18.29c6.08,6.73,10.56,18.58,6.7,27.82c-5.92,1-11.17,7.16-12.72,14.91
		c24.96,4.29,56.76,3.85,67.4-26.88c3.03-8.75,4.4-20.01,10.88-24.13c12-7.62,21.9,17.91,35.07,20.03
		c11.98,1.93,20.56-16.84,20.38-33.1c-0.33-29.72-5.13-44.89,1.17-72.81c6.57-29.12-1.65-41.19-13.08-69.64
		c-1.76-4.37-3.56-8.97-3.6-13.93c-0.04-4.92,1.66-9.56,3.58-13.74c9.25-20.14,22.37-29.5,39.2-37.42
		c5.26-2.48,10.98,0.87,16.11-3.31c5.12-4.16,4.93-16.95,8.51-19.75c17.01-13.34,47.77,5.46,47.36-35
		c-0.19-18.39-5.6-20.93-15.6-29.47C255.47,492.75,219.65,476.58,188.89,482.08z"/>
	<path d="M371.52,485.12c37.03,6.22,71.72,42.86,76.11,89.77c1.82,19.48-0.22,42.84,11.96,55c9.48,9.46,23.12,7,34.69,11.4
		c13.16,5.01,23.88,21.12,23.2,38.48c-1.13,28.71-30.94,43.07-52.38,33.54c-5.45,13.77,2.07,32.88,14.03,35.7
		c5.89,1.39,11.93-0.65,17.91-0.37c11.23,0.53,21.89,10.07,26.02,23.29c4.13,13.22,1.51,29.39-6.4,39.49
		c-5.82,7.43-13.84,11.4-20.23,18.04s-11.1,18.32-7.04,27.42c6.22,0.99,11.73,7.06,13.37,14.71c-26.23,4.23-59.64,3.8-70.82-26.5
		c-3.18-8.63-4.62-19.73-11.43-23.79c-12.61-7.51-23.01,17.66-36.85,19.75c-12.59,1.9-21.6-16.61-21.41-32.64
		c0.18-15.55,7.79-31.39,6.75-46.71c-0.86-12.68-6.28-15.7-9.27-26.05c-7.8-26.94,3.81-41.48,15.04-67.69
		c1.85-4.31,3.74-8.84,3.78-13.74c0.04-4.85-1.74-9.42-3.76-13.55c-10.25-20.95-25.32-30.78-43.11-38.07
		c-11.76-4.82-23.77-1.17-24.58-22.29c-18.89-1.73-49.48-0.63-49.13-33.74c0-0.01,0-0.02,0-0.03c0.2-18.13,5.88-20.64,16.39-29.06
		C301.56,495.64,339.2,479.69,371.52,485.12z"/>
	<path class="st0" d="M206.46,769.64c4.11,0.39,4.41,5.5,11.11,8.96c8,4.12,13.82,0.07,15.39,2.99c3.24,6.02-20.25,26.07-17.1,32.84
		c2.8,6.02,22.91-6.53,32.49,3.98c4.55,4.99,6.19,14.26,3.42,19.91c-5.12,10.45-24.44,6.7-38.47,3.98
		c-16.53-3.21-28.58-5.54-32.49-15.92c-3.29-8.74,1.21-18.17,8.55-34.84C192.81,783.74,199.32,768.96,206.46,769.64z"/>
	<path class="st0" d="M347.31,771.56c-3.72,0.39-4,5.5-10.07,8.96c-7.25,4.12-12.53,0.07-13.95,2.99
		c-2.94,6.02,18.35,26.07,15.5,32.84c-2.54,6.02-20.76-6.53-29.44,3.98c-4.12,4.99-5.61,14.26-3.1,19.91
		c4.64,10.45,22.15,6.7,34.87,3.98c14.98-3.21,25.9-5.54,29.44-15.92c2.98-8.74-1.09-18.17-7.75-34.84
		C359.68,785.65,353.78,770.88,347.31,771.56z"/>
	<path class="st1" d="M234.75,718.96c21.04-0.18,26.22,15.26,50.4,14.12c20.81-0.98,23.59-12.74,41.37-12.46
		c23.5,0.36,53.39,21.48,51.9,44.87c-1.38,21.69-29.49,41.11-45.89,34.9c-14.54-5.51-19.58-31.08-20.31-30.74
		c-1.13,0.51,29.28,52.18,15.04,78.1c-14.63,26.64-76.56,26.4-91.02,0c-13.21-24.1,12.68-70.88,11.28-71.46
		c-0.81-0.34-3.87,17.91-15.04,24.1c-17.04,9.42-51.91-9.76-54.16-32.4C176.03,744.81,207.98,719.19,234.75,718.96z"/>
	<path class="st3" d="M280.52,876.82c-1.15,0.05-2.26,1.08-2.26,2.49c0,1.43,1.15,2.48,2.26,2.49c1.48,0.01,2.68-1.83,2.26-3.32
		C282.49,877.48,281.51,876.78,280.52,876.82z"/>
	<path class="st2" d="M257.95,890.95"/>
	<path class="st0" d="M234.64,912.55"/>
	<path class="st0" d="M281.99,567.74c-47.05-0.66-103.95,32.98-105.98,76.62c-2.14,45.98,57.15,91.6,110.35,88.58
		c47.04-2.66,100.35-43.98,97.95-89.13C381.92,599.11,325.88,568.35,281.99,567.74z"/>
	<path class="st4" d="M247.57,686.14c8.5-3.66,11.18-5.88,16.94-5.82c6.78,0.08,8.5,3.21,15.05,2.49c6.44-0.71,6.77-3.96,12.2-4.22
		c5.61-0.27,8.35,3.07,16.97,7.54c3.81,1.98,9.43,4.52,16.94,6.65c-3.17,4.29-9.4,11.49-19.95,17.14
		c-4.71,2.52-21.65,13.22-41.88,7.24c-13.51-4-28.08-16.7-37.61-23.84C235.59,690.96,242.74,688.22,247.57,686.14z"/>
	<path class="st5" d="M225.98,693.62c14.4,3.04,32.52,5.46,53.41,4.99c17.97-0.41,33.71-2.86,46.64-5.82"/>
	<path class="st6" d="M269.71,664.63c4.71-3.18,11.9-3.37,16.83-0.44"/>
	<path d="M413.19,641.01c-3.68-5.28-7.36-10.55-11.04-15.83c-3.8-5.45-7.74-11.03-13.01-14.46c-5.6-3.64-12.19-4.51-18.6-5.02
		c-25.79-2.04-51.87,0.72-76.92,8.14c-2.82,3.34,0.42,10.73,4.31,12c3.89,1.27,7.96-0.56,11.77-2.13
		C344.85,609.24,383.91,614.24,413.19,641.01z"/>
	<path d="M169.94,640.66c2.92-5.28,5.84-10.55,8.77-15.83c3.02-5.45,6.14-11.03,10.33-14.46c4.45-3.64,9.68-4.51,14.77-5.02
		c20.48-2.04,41.18,0.72,61.07,8.14c2.24,3.34-0.33,10.73-3.42,12c-3.09,1.27-6.32-0.56-9.34-2.13
		C224.2,608.89,193.19,613.89,169.94,640.66z"/>
	<path d="M332,629.24c-12.2-0.49-24.76,8.67-23.57,18.57c1.1,9.12,13.46,15.6,24.51,14.53c9.49-0.91,20.05-7.59,19.79-16.95
		C352.49,636.03,341.59,629.62,332,629.24z"/>
	<path d="M229.63,626.75c-12.17-0.49-24.69,8.7-23.5,18.64c1.09,9.15,13.42,15.66,24.44,14.59c9.47-0.92,19.99-7.62,19.74-17.02
		C250.06,633.57,239.2,627.13,229.63,626.75z"/>
	<path class="st1" d="M335.44,641.69c-2.45,0-4.79,2.57-4.5,5.22c0.26,2.37,2.51,3.92,4.5,3.92c1.98,0,4.24-1.55,4.5-3.92
		C340.23,644.26,337.9,641.69,335.44,641.69z"/>
	<path class="st1" d="M360.26,635.04"/>
	<path class="st1" d="M226.16,641.4c-2.56,0-4.99,2.65-4.69,5.39c0.27,2.45,2.62,4.04,4.69,4.04c2.07,0,4.42-1.59,4.69-4.04
		C231.15,644.05,228.72,641.4,226.16,641.4z"/>
	<path class="st1" d="M215.3,641.07c-1.34,0-2.62,1.57-2.46,3.2c0.14,1.45,1.38,2.4,2.46,2.4c1.09,0,2.32-0.95,2.46-2.4
		C217.92,642.65,216.64,641.07,215.3,641.07z"/>
	<path class="st1" d="M343.79,639.77c-1.34,0-2.62,1.57-2.46,3.2c0.14,1.45,1.38,2.4,2.46,2.4c1.09,0,2.32-0.95,2.46-2.4
		C346.41,641.34,345.13,639.77,343.79,639.77z"/>
	<path d="M346.1,625.49c4.85,0.31,9.56,1.6,14.42,1.88c6.25,0.36,12.52-0.96,18.66-2.48c9.36-2.32,19.37-5.63,25.03-13.55
		c-4.75,9.35-12.87,17.03-22.45,21.23c-9.09,3.99-19.11,4.84-28.9,5.63c-11.61,0.94-32.25,6.47-42.68,2.61
		C318.03,630.75,333.81,624.81,346.1,625.49z"/>
	<path d="M213.77,624.41c-4.58,1.1-8.97,3.37-13.56,4.43c-5.9,1.37-11.94,0.7-17.85-0.23c-9.02-1.42-18.71-3.94-24.56-12.72
		c5.07,10.65,13.23,18.75,22.58,22.42c8.87,3.48,18.41,3.02,27.75,2.53c11.06-0.59,30.97,3.05,40.63-3.2
		C240.7,626.61,225.38,621.76,213.77,624.41z"/>
</g>
</svg>
