<?xml version="1.0" encoding="utf-8"?>
<!-- Generator: Adobe Illustrator 29.0.0, SVG Export Plug-In . SVG Version: 9.03 Build 54978)  -->
<svg version="1.0" id="Lag_1" xmlns="http://www.w3.org/2000/svg" xmlns:xlink="http://www.w3.org/1999/xlink" x="0px" y="0px"
	 viewBox="0 0 800 800" style="enable-background:new 0 0 800 800;" xml:space="preserve">
<style type="text/css">
	.st0{fill:#4AB224;}
	.st1{opacity:0.5;fill:#00BC00;enable-background:new    ;}
	.st2{opacity:0.5;fill:url(#SVGID_1_);enable-background:new    ;}
	.st3{opacity:0.5;fill:url(#SVGID_00000048470381195737540370000002965126685872915113_);enable-background:new    ;}
	.st4{opacity:0.24;fill:url(#SVGID_00000097491728662444312400000001742123597997378711_);enable-background:new    ;}
	.st5{opacity:0.24;fill:url(#SVGID_00000168077924383358404990000005857479697714848674_);enable-background:new    ;}
	.st6{opacity:0.32;fill:url(#SVGID_00000067226064305149365230000001727451594221698193_);enable-background:new    ;}
</style>
<path class="st0" d="M537.72,123.81c-57.14,0-107.62,28.76-137.72,72.57c-30.09-43.81-80.57-72.57-137.71-72.57
	c-92.19,0-167.05,74.86-167.05,167.05C95.24,494.48,400,677.53,400,677.53s304.76-183.05,304.76-386.67
	C704.76,198.67,629.91,123.81,537.72,123.81z"/>
<path class="st1" d="M606.85,138.67c91.43,145.71,7.24,336.95-93.9,391.24c-111.62,60-188,31.81-346.1-57.9
	C256.95,591.43,400,677.34,400,677.34s304.76-183.05,304.76-386.67C704.76,223.24,664.57,164.96,606.85,138.67z"/>
<radialGradient id="SVGID_1_" cx="-558.1219" cy="939.9543" r="1" gradientTransform="matrix(415.4317 -234.1602 -185.7484 -329.5426 406769.375 179343.3125)" gradientUnits="userSpaceOnUse">
	<stop  offset="0" style="stop-color:#FFFFFF;stop-opacity:0.25"/>
	<stop  offset="1" style="stop-color:#FFFFFF;stop-opacity:0"/>
</radialGradient>
<path class="st2" d="M537.72,123.81c-57.14,0-107.62,28.76-137.72,72.57c-30.09-43.81-80.57-72.57-137.71-72.57
	c-92.19,0-167.05,74.86-167.05,167.05C95.24,494.48,400,677.53,400,677.53s304.76-183.05,304.76-386.67
	C704.76,198.67,629.91,123.81,537.72,123.81z"/>
<radialGradient id="SVGID_00000162340868531720602630000007724126551804708014_" cx="-557.7372" cy="938.8359" r="1" gradientTransform="matrix(312.0807 -154.2128 -55.4667 -112.2481 226617.4219 19812.5059)" gradientUnits="userSpaceOnUse">
	<stop  offset="0" style="stop-color:#BD2719;stop-opacity:0.25"/>
	<stop  offset="1" style="stop-color:#BD2719;stop-opacity:0"/>
</radialGradient>
<path style="opacity:0.5;fill:url(#SVGID_00000162340868531720602630000007724126551804708014_);enable-background:new    ;" d="
	M537.72,123.81c-57.14,0-107.62,28.76-137.72,72.57c-30.09-43.81-80.57-72.57-137.71-72.57c-92.19,0-167.05,74.86-167.05,167.05
	C95.24,494.48,400,677.53,400,677.53s304.76-183.05,304.76-386.67C704.76,198.67,629.91,123.81,537.72,123.81z"/>
<radialGradient id="SVGID_00000041268895322748440680000007532197934687482812_" cx="-555.2176" cy="936.632" r="1" gradientTransform="matrix(114.9881 -45.7379 -28.4117 -71.4288 90699.6797 41747.8438)" gradientUnits="userSpaceOnUse">
	<stop  offset="0" style="stop-color:#FFFFFF"/>
	<stop  offset="1" style="stop-color:#FFFFFF;stop-opacity:0"/>
</radialGradient>
<path style="opacity:0.24;fill:url(#SVGID_00000041268895322748440680000007532197934687482812_);enable-background:new    ;" d="
	M358.29,191.63c16.76,39.43-20.38,92.95-83.05,119.43c-62.67,26.48-126.86,16.19-143.62-23.05s20.38-92.95,83.05-119.43
	C277.33,142.1,341.52,152.2,358.29,191.63z"/>
<radialGradient id="SVGID_00000165953902686997794400000013254067869161401003_" cx="-555.7535" cy="933.6121" r="0.9997" gradientTransform="matrix(77.6035 -66.899 -41.5594 -48.2093 82415.4453 8057.585)" gradientUnits="userSpaceOnUse">
	<stop  offset="0" style="stop-color:#FFFFFF"/>
	<stop  offset="1" style="stop-color:#FFFFFF;stop-opacity:0"/>
</radialGradient>
<path style="opacity:0.24;fill:url(#SVGID_00000165953902686997794400000013254067869161401003_);enable-background:new    ;" d="
	M562.47,159.63c23.81,26.29,9.14,78.29-32.57,116c-41.72,37.71-94.86,47.05-118.67,20.76c-23.81-26.29-9.14-78.29,32.57-116
	C485.52,142.68,538.66,133.34,562.47,159.63z"/>
<linearGradient id="SVGID_00000076593608979429075010000017264213270309391488_" gradientUnits="userSpaceOnUse" x1="-528.338" y1="909.9798" x2="-526.5665" y2="933.8655" gradientTransform="matrix(33.3333 0 0 -33.3333 18074.332 31227.666)">
	<stop  offset="0" style="stop-color:#860805"/>
	<stop  offset="1" style="stop-color:#BD2719;stop-opacity:0"/>
</linearGradient>
<path style="opacity:0.32;fill:url(#SVGID_00000076593608979429075010000017264213270309391488_);enable-background:new    ;" d="
	M540.76,168.19c83.81,28.57,163.81,152.38,28.57,306.67C488.38,567.24,400,613.91,287.62,595.62
	c60.76,50.67,112.57,81.91,112.57,81.91s304.76-183.05,304.76-386.67c-0.19-92.19-75.05-167.05-167.24-167.05
	c-57.14,0-107.62,28.76-137.71,72.57C400,196.38,479.43,147.24,540.76,168.19z"/>
</svg>
