<?xml version="1.0" encoding="utf-8"?>
<!-- Generator: Adobe Illustrator 29.0.0, SVG Export Plug-In . SVG Version: 9.03 Build 54978)  -->
<svg version="1.0" id="Lag_1" xmlns="http://www.w3.org/2000/svg" xmlns:xlink="http://www.w3.org/1999/xlink" x="0px" y="0px"
	 viewBox="0 0 800 800" style="enable-background:new 0 0 800 800;" xml:space="preserve">
<style type="text/css">
	.st0{fill:#17DD2A;}
</style>
<path class="st0" d="M656.25,706.25L587.5,637.5c-22.92,15.62-47.4,29.17-73.44,40.62c-27.08,11.46-52.6,18.75-76.56,21.88v-75
	c32.29-5.21,64.06-19.27,95.31-42.19L375,425v275L200,525H100V275h125L93.75,143.75l50-50l562.5,562.5L656.25,706.25z M375,100v125
	l-60.94-65.62L375,100z M625,400c0-55.21-18.23-104.17-54.69-146.88c-36.46-43.75-80.73-69.79-132.81-78.12v-75
	c47.92,5.21,92.19,22.4,132.81,51.56c39.58,28.12,71.35,64.58,95.31,109.38C688.54,304.69,700,351.04,700,400
	c0,19.79-2.6,42.71-7.81,68.75c-6.25,26.04-13.54,47.4-21.88,64.06L612.5,475C620.83,447.92,625,422.92,625,400z M443.75,256.25
	c31.25,9.38,56.77,27.08,76.56,53.12C540.1,335.42,550,365.62,550,400v6.25L443.75,300V256.25z"/>
</svg>
