<?xml version="1.0" encoding="utf-8"?>
<!-- Generator: Adobe Illustrator 29.0.0, SVG Export Plug-In . SVG Version: 9.03 Build 54978)  -->
<svg version="1.0" id="Lag_1" xmlns="http://www.w3.org/2000/svg" xmlns:xlink="http://www.w3.org/1999/xlink" x="0px" y="0px"
	 viewBox="0 0 1920 1080" style="enable-background:new 0 0 1920 1080;" xml:space="preserve">
<style type="text/css">
	.st0{fill:#33BC28;stroke:#036003;stroke-width:15;stroke-miterlimit:10;}
	.st1{fill:#333333;}
	.st2{font-family:'Impact';}
	.st3{font-size:121.8799px;}
	.st4{font-size:52.7373px;}
	.st5{fill:url(#SVGID_1_);}
	.st6{fill:url(#SVGID_00000171713398287247682560000006065817352423769250_);}
	.st7{fill:url(#SVGID_00000028295880511170908850000006920587513902839952_);}
	.st8{fill:url(#SVGID_00000068649807183814165770000003543112029749694862_);}
	.st9{fill:url(#SVGID_00000070796877272355197760000014996215390501167509_);}
</style>
<g>
	<ellipse class="st0" cx="993.58" cy="514.66" rx="592.25" ry="418.25"/>
	<text transform="matrix(0.7928 0 0 1 731.7244 339.3783)" class="st1 st2 st3">DRESS A BRAT</text>
	<text transform="matrix(0.7928 0 0 1 1255.4358 445.6192)" class="st2 st3"> </text>
	<text transform="matrix(0.8707 0 0 1 614.2363 421.2744)" class="st1 st2 st4">CHARLIE IS GOING TO A RED CARPET EVENT </text>
	<text transform="matrix(0.8707 0 0 1 589.5952 499.2856)" class="st1 st2 st4">HELP HER GET READY SO SHE CAN BE THE BEST</text>
	<text transform="matrix(0.8707 0 0 1 793.4839 577.2871)" class="st1 st2 st4">DRESSED BRAT THERE</text>
	<text transform="matrix(0.8707 0 0 1 1174.9268 577.2871)" class="st2 st4"> </text>
	
		<radialGradient id="SVGID_1_" cx="669.7717" cy="900.9046" r="89.7307" gradientTransform="matrix(1.2589 -1.358292e-03 1.358292e-03 -1.2585 -209.3405 1304.051)" gradientUnits="userSpaceOnUse">
		<stop  offset="0" style="stop-color:#15CC00"/>
		<stop  offset="1" style="stop-color:#000000"/>
	</radialGradient>
	<polygon class="st5" points="717.8,268.07 642.61,223.39 576.72,281.16 596.14,195.77 520.95,151.09 608.15,143 627.57,57.61 
		662.04,138 749.23,129.9 683.34,187.68 	"/>
	
		<radialGradient id="SVGID_00000098923335605284458720000004777109154428810684_" cx="1443.075" cy="346.9767" r="116.9834" gradientTransform="matrix(1 0 0 -1 0 1080)" gradientUnits="userSpaceOnUse">
		<stop  offset="0" style="stop-color:#15CC00"/>
		<stop  offset="1" style="stop-color:#000000"/>
	</radialGradient>
	<polygon style="fill:url(#SVGID_00000098923335605284458720000004777109154428810684_);" points="1516.87,847.07 1442.91,793.11 
		1368.74,846.78 1397.2,759.76 1323.23,705.81 1414.78,705.99 1443.24,618.97 1471.37,706.1 1562.92,706.27 1488.75,759.94 	"/>
	
		<radialGradient id="SVGID_00000110433954754427452540000011082163553881161353_" cx="620.785" cy="334.9267" r="76.6029" gradientTransform="matrix(1 0 0 -1 0 1080)" gradientUnits="userSpaceOnUse">
		<stop  offset="0" style="stop-color:#15CC00"/>
		<stop  offset="1" style="stop-color:#000000"/>
	</radialGradient>
	<polygon style="fill:url(#SVGID_00000110433954754427452540000011082163553881161353_);" points="698.91,760.94 639.23,762.79 
		622.55,820.12 602.35,763.94 542.66,765.79 589.86,729.21 569.65,673.02 619.03,706.6 666.22,670.02 649.54,727.36 	"/>
	
		<radialGradient id="SVGID_00000106846357697767959420000010018265147124608133_" cx="508.12" cy="767.5467" r="62.2383" gradientTransform="matrix(1 0 0 -1 0 1080)" gradientUnits="userSpaceOnUse">
		<stop  offset="0" style="stop-color:#15CC00"/>
		<stop  offset="1" style="stop-color:#000000"/>
	</radialGradient>
	<polygon style="fill:url(#SVGID_00000106846357697767959420000010018265147124608133_);" points="553.78,366.89 512.32,342.23 
		476.06,374.04 486.7,326.99 445.24,302.33 493.28,297.91 503.92,250.86 522.96,295.18 571,290.76 534.74,322.57 	"/>
	
		<radialGradient id="SVGID_00000137834086159317617550000014676661626319755162_" cx="1526.6499" cy="486.3867" r="58.1444" gradientTransform="matrix(1 0 0 -1 0 1080)" gradientUnits="userSpaceOnUse">
		<stop  offset="0" style="stop-color:#15CC00"/>
		<stop  offset="1" style="stop-color:#000000"/>
	</radialGradient>
	<polygon style="fill:url(#SVGID_00000137834086159317617550000014676661626319755162_);" points="1585.83,610.33 1540.62,608.33 
		1524.75,650.7 1512.68,607.09 1467.47,605.09 1505.22,580.13 1493.16,536.52 1528.55,564.71 1566.3,539.76 1550.43,582.14 	"/>
</g>
</svg>
