<?xml version="1.0" encoding="utf-8"?>
<!-- Generator: Adobe Illustrator 29.0.0, SVG Export Plug-In . SVG Version: 9.03 Build 54978)  -->
<svg version="1.0" id="Layer_1" xmlns="http://www.w3.org/2000/svg" xmlns:xlink="http://www.w3.org/1999/xlink" x="0px" y="0px"
	 viewBox="0 0 600 200" style="enable-background:new 0 0 600 200;" xml:space="preserve">
<style type="text/css">
	.st0{fill:none;stroke:#05CE00;stroke-width:3;stroke-miterlimit:10;}
	.st1{fill:#05CE00;}
	.st2{fill:none;stroke:#00C7A4;stroke-miterlimit:10;}
</style>
<g id="Layer_8">
	<line class="st0" x1="7.85" y1="27.55" x2="538.35" y2="27.55"/>
	<g>
		<path class="st1" d="M23.32,145.45c-1.85-1.9-2.78-4.45-2.78-7.65V56.95c0.8-0.2,2.07-0.45,3.83-0.75
			c1.75-0.3,3.47-0.45,5.17-0.45c3.6,0,6.25,0.65,7.95,1.95c1.7,1.3,2.55,3.7,2.55,7.2v67.35h38.55c0.5,0.8,1,1.88,1.5,3.22
			c0.5,1.35,0.75,2.83,0.75,4.43c0,2.7-0.63,4.78-1.88,6.22c-1.25,1.45-2.98,2.17-5.18,2.17H30.9c-3.2,0-5.73-0.95-7.57-2.85
			L23.32,145.45z"/>
		<path class="st1" d="M93.75,55.75c0-2.9,1.02-5.37,3.07-7.42s4.67-3.08,7.88-3.08s5.8,1.03,7.8,3.08c2,2.05,3,4.53,3,7.42
			s-1,5.53-3,7.58s-4.6,3.07-7.8,3.07s-5.83-1.02-7.88-3.07C94.77,61.28,93.75,58.75,93.75,55.75z M95.25,77.5
			c0.8-0.2,1.97-0.45,3.52-0.75c1.55-0.3,3.23-0.45,5.02-0.45c3.6,0,6.23,0.65,7.88,1.95c1.65,1.3,2.48,3.6,2.48,6.9v62.7
			c-0.8,0.2-1.98,0.45-3.52,0.75c-1.55,0.3-3.23,0.45-5.03,0.45c-3.6,0-6.22-0.65-7.88-1.95c-1.65-1.3-2.47-3.6-2.47-6.9V77.5
			L95.25,77.5z"/>
		<path class="st1" d="M188.85,75.4c2.6,0,4.77,0.6,6.52,1.8c1.75,1.2,2.62,3.2,2.62,6c0,1.3-0.38,3.4-1.12,6.3
			c-0.75,2.9-1.75,6.25-3,10.05s-2.68,7.9-4.27,12.3c-1.6,4.4-3.25,8.73-4.95,12.98s-3.4,8.28-5.1,12.08c-1.7,3.8-3.25,7-4.65,9.6
			c-1,0.8-2.5,1.45-4.5,1.95s-4.2,0.75-6.6,0.75c-2.9,0-5.38-0.38-7.43-1.12c-2.05-0.75-3.52-1.97-4.42-3.67s-2-4.05-3.3-7.05
			s-2.7-6.4-4.2-10.2s-3.05-7.82-4.65-12.08c-1.6-4.25-3.13-8.48-4.58-12.67c-1.45-4.2-2.8-8.25-4.05-12.15s-2.28-7.4-3.08-10.5
			c1-1.2,2.42-2.22,4.27-3.08c1.85-0.85,3.77-1.27,5.77-1.27c2.6,0,4.73,0.6,6.38,1.8c1.65,1.2,2.93,3.35,3.83,6.45l7.5,24.75
			c0.6,2,1.27,4.12,2.02,6.38s1.47,4.45,2.18,6.6c0.7,2.15,1.37,4.2,2.02,6.15c0.65,1.95,1.17,3.58,1.57,4.88h0.6
			c2.9-8.8,5.75-17.87,8.55-27.23c2.8-9.35,5.25-18.57,7.35-27.67c1.2-0.7,2.57-1.22,4.12-1.58c1.55-0.35,3.08-0.52,4.58-0.52
			L188.85,75.4z"/>
		<path class="st1" d="M207.9,138.7c0-3.3,1.02-6.08,3.08-8.33c2.05-2.25,4.82-3.38,8.32-3.38s6.3,1.12,8.4,3.38
			c2.1,2.25,3.15,5.03,3.15,8.33s-1.05,5.92-3.15,8.17c-2.1,2.25-4.9,3.38-8.4,3.38s-6.28-1.12-8.32-3.38
			C208.93,144.62,207.9,141.9,207.9,138.7L207.9,138.7z M208.35,88.9c0-3.2,1.02-5.92,3.07-8.17s4.82-3.38,8.33-3.38
			s6.3,1.12,8.4,3.38s3.15,4.98,3.15,8.17s-1.05,6.08-3.15,8.33s-4.9,3.38-8.4,3.38s-6.28-1.12-8.33-3.38
			C209.37,94.98,208.35,92.21,208.35,88.9z"/>
	</g>
	<path class="st2" d="M348.35,101.25c0,2.03-0.28,4.04-0.8,6c0,0.1-0.1,0.2-0.1,0.3c-0.31,0.99-0.67,1.96-1.1,2.9l0,0
		c-9.3,21.8-38.6,41.6-38.6,41.6s-28.5-16.9-38.9-40.8l0,0c-1.61-3.08-2.44-6.52-2.4-10c-0.02-11.91,9.62-21.58,21.54-21.6
		c8.29-0.01,15.86,4.73,19.46,12.2c5.14-10.71,17.99-15.22,28.7-10.08C343.63,85.36,348.38,92.95,348.35,101.25L348.35,101.25z"/>
	<path class="st2" d="M439.35,101.25c0,2.03-0.28,4.04-0.8,6c0,0.1-0.1,0.2-0.1,0.3c-0.31,0.99-0.67,1.96-1.1,2.9l0,0
		c-9.3,21.8-38.6,41.6-38.6,41.6s-28.5-16.9-38.9-40.8l0,0c-1.61-3.08-2.44-6.52-2.4-10c-0.02-11.91,9.62-21.58,21.54-21.6
		c8.29-0.01,15.86,4.73,19.46,12.2c5.14-10.71,17.99-15.22,28.7-10.08C434.63,85.36,439.38,92.95,439.35,101.25L439.35,101.25z"/>
	<path class="st2" d="M530.35,101.25c0,2.03-0.28,4.04-0.8,6c0,0.1-0.1,0.2-0.1,0.3c-0.31,0.99-0.67,1.96-1.1,2.9l0,0
		c-9.3,21.8-38.6,41.6-38.6,41.6s-28.5-16.9-38.9-40.8l0,0c-1.61-3.08-2.44-6.52-2.4-10c-0.02-11.91,9.62-21.58,21.54-21.6
		c8.29-0.01,15.86,4.73,19.46,12.2c5.14-10.71,17.99-15.22,28.7-10.08C525.63,85.36,530.38,92.95,530.35,101.25L530.35,101.25
		L530.35,101.25z"/>
</g>
</svg>
