<?xml version="1.0" encoding="utf-8"?>
<!-- Generator: Adobe Illustrator 29.0.0, SVG Export Plug-In . SVG Version: 9.03 Build 54978)  -->
<svg version="1.0" id="Lag_1" xmlns="http://www.w3.org/2000/svg" xmlns:xlink="http://www.w3.org/1999/xlink" x="0px" y="0px"
	 viewBox="0 0 1920 1080" style="enable-background:new 0 0 1920 1080;" xml:space="preserve">
<style type="text/css">
	.st0{fill:#C7B299;}
	.st1{fill:#998675;}
	.st2{fill:#333333;}
	.st3{fill:#67272D;stroke:#55002D;stroke-miterlimit:10;}
	.st4{fill:none;stroke:#55002D;stroke-miterlimit:10;}
	.st5{fill:none;stroke:#998675;stroke-miterlimit:10;}
	.st6{fill:#FFFFFF;}
	.st7{fill:#1A1A1A;stroke:#000000;stroke-miterlimit:10;}
	.st8{fill:none;}
	.st9{fill:#FF00FF;}
	.st10{font-family:'MyriadPro-Regular';}
	.st11{font-size:12px;}
	.st12{fill:#1A1A1A;}
	.st13{fill:#130114;}
	.st14{font-size:19.5831px;}
	.st15{fill:#33BC28;stroke:#036003;stroke-width:15;stroke-miterlimit:10;}
	.st16{font-family:'Impact';}
	.st17{font-size:57.0014px;}
	.st18{font-size:88.9032px;}
	.st19{fill:url(#SVGID_1_);}
	.st20{fill:url(#SVGID_00000049928538047238226720000007102462413255456129_);}
	.st21{fill:url(#SVGID_00000029759177615300340680000009407591273947330689_);}
	.st22{fill:url(#SVGID_00000112599134261536410200000000061881449769820590_);}
	.st23{fill:url(#SVGID_00000078045310179648125900000000590722880231021222_);}
</style>
<g>
	<path class="st0" d="M939.15,726.17c6.66-8.01,23.91,10.64,49.84,9.37c22.51-1.1,35.92-16.44,42.46-9.37
		c1.58,1.71,2.16,8.02,3.24,20.55c0.91,10.59,1.35,15.92,0.45,17.85c-3.78,8.13-17.2,5.94-47.07,5.62
		c-33.56-0.36-49.11,2.06-52.61-6.56c-0.75-1.86-0.19-2.36,1.23-16.91C938.43,728.8,937.74,727.87,939.15,726.17z"/>
	<path d="M869.91,244.39c-45.46,8.11-88.06,55.9-93.44,117.09c-2.24,25.42,0.27,55.88-14.68,71.74
		c-11.64,12.35-28.39,9.13-42.59,14.88c-16.16,6.54-29.32,27.55-28.48,50.19c1.38,37.44,37.98,56.18,64.31,43.75
		c6.69,17.96-2.54,42.89-17.23,46.57c-7.23,1.81-14.65-0.85-21.99-0.48c-13.79,0.7-26.87,13.13-31.94,30.38
		c-5.07,17.25-1.85,38.34,7.86,51.51c7.14,9.69,16.99,14.87,24.83,23.53c7.84,8.66,13.63,23.89,8.65,35.77
		c-7.63,1.29-14.41,9.21-16.41,19.18c32.2,5.51,73.22,4.96,86.94-34.57c3.91-11.25,5.67-25.74,14.04-31.03
		c15.48-9.8,28.25,23.03,45.24,25.76c15.46,2.48,26.52-21.66,26.29-42.57c-0.43-38.22-6.62-57.73,1.51-93.64
		c8.48-37.45-2.13-52.97-16.88-89.56c-2.27-5.62-4.59-11.53-4.64-17.92c-0.05-6.33,2.14-12.29,4.62-17.68
		c11.93-25.9,28.86-37.94,50.56-48.13c6.78-3.18,14.16,1.11,20.78-4.25c6.61-5.35,6.37-21.8,10.98-25.4
		c21.95-17.16,61.63,7.02,61.09-45.01c-0.24-23.65-7.22-26.91-20.12-37.9C955.8,258.12,909.59,237.31,869.91,244.39z"/>
	<path d="M1105.5,248.3c47.77,8,92.52,55.12,98.17,115.45c2.35,25.06-0.29,55.1,15.42,70.73c12.23,12.17,29.83,9,44.75,14.67
		c16.98,6.45,30.81,27.16,29.93,49.49c-1.45,36.92-39.91,55.39-67.57,43.13c-7.02,17.7,2.66,42.28,18.1,45.91
		c7.59,1.79,15.39-0.84,23.11-0.47c14.49,0.69,28.23,12.95,33.56,29.95c5.33,17.01,1.95,37.8-8.26,50.79
		c-7.51,9.55-17.85,14.66-26.09,23.2c-8.24,8.54-14.32,23.56-9.09,35.27c8.02,1.27,15.14,9.08,17.24,18.91
		c-33.83,5.44-76.93,4.89-91.35-34.08c-4.11-11.1-5.96-25.38-14.75-30.6c-16.27-9.66-29.68,22.71-47.54,25.4
		c-16.24,2.45-27.87-21.36-27.62-41.97c0.24-20,10.05-40.38,8.71-60.07c-1.11-16.31-8.1-20.2-11.96-33.5
		c-10.06-34.65,4.91-53.34,19.4-87.06c2.38-5.54,4.82-11.37,4.88-17.67c0.06-6.24-2.25-12.12-4.85-17.43
		c-13.22-26.95-32.66-39.58-55.61-48.96c-15.17-6.2-30.66-1.51-31.7-28.67c-24.36-2.23-63.82-0.81-63.38-43.4c0-0.01,0-0.03,0-0.04
		c0.26-23.32,7.58-26.54,21.14-37.38C1015.25,261.83,1063.8,241.32,1105.5,248.3z"/>
	<path class="st0" d="M892.58,614.23c5.3,0.5,5.69,7.08,14.34,11.52c10.31,5.3,17.83,0.1,19.85,3.84
		c4.18,7.75-26.12,33.53-22.06,42.24c3.62,7.74,29.55-8.4,41.91,5.12c5.86,6.42,7.98,18.34,4.41,25.6
		c-6.61,13.44-31.52,8.62-49.63,5.12c-21.32-4.12-36.86-7.13-41.91-20.48c-4.25-11.24,1.55-23.37,11.03-44.8
		C874.96,632.35,883.36,613.35,892.58,614.23z"/>
	<path class="st0" d="M1074.26,616.69c-4.8,0.5-5.16,7.08-12.99,11.52c-9.35,5.3-16.16,0.1-17.99,3.84
		c-3.79,7.75,23.68,33.53,19.99,42.24c-3.28,7.74-26.78-8.4-37.98,5.12c-5.31,6.42-7.23,18.34-4,25.6
		c5.99,13.44,28.57,8.62,44.98,5.12c19.32-4.12,33.41-7.13,37.98-20.48c3.85-11.24-1.41-23.37-10-44.8
		C1090.23,634.81,1082.61,615.81,1074.26,616.69z"/>
	<path class="st0" d="M1009.46,823.67c-2.62,2.93-2.57,9.14,0,11.75c1.7,1.73,3.23,0.64,10.67,1.07c6.78,0.39,8.23,1.44,9.7,0
		c2.4-2.35,1.99-8.72-0.97-11.75c-1.45-1.48-3.57-1.72-7.76-2.14C1014.55,821.95,1011.28,821.63,1009.46,823.67z"/>
	<path class="st0" d="M946.02,822.39c-2.62,2.93-2.57,9.14,0,11.75c1.7,1.73,3.23,0.64,10.67,1.07c6.78,0.39,8.23,1.44,9.7,0
		c2.4-2.35,1.99-8.72-0.97-11.75c-1.45-1.48-3.57-1.72-7.76-2.14C951.11,820.67,947.84,820.35,946.02,822.39z"/>
	<path class="st1" d="M988.11,752.07c-1.48,0.06-2.91,1.4-2.91,3.21c0,1.84,1.48,3.2,2.91,3.21c1.91,0.01,3.45-2.36,2.91-4.27
		C990.66,752.91,989.39,752.02,988.11,752.07z"/>
	<path class="st2" d="M959,770.24"/>
	<path class="st0" d="M928.92,798.02"/>
	<path class="st0" d="M990.01,354.55c-60.69-0.85-134.09,42.41-136.71,98.54c-2.76,59.13,73.72,117.8,142.34,113.93
		c60.67-3.43,129.44-56.57,126.34-114.63C1118.91,394.9,1046.62,355.34,990.01,354.55z"/>
	<path class="st3" d="M945.6,506.83c10.97-4.71,14.42-7.56,21.85-7.48c8.75,0.1,10.96,4.13,19.42,3.21
		c8.31-0.91,8.74-5.09,15.73-5.42c7.24-0.34,10.78,3.94,21.89,9.7c4.91,2.54,12.17,5.82,21.85,8.55
		c-4.09,5.51-12.13,14.78-25.73,22.04c-6.07,3.25-27.93,17-54.02,9.31c-17.43-5.14-36.23-21.48-48.51-30.66
		C930.15,513.03,939.37,509.5,945.6,506.83z"/>
	<path class="st4" d="M917.76,516.45c18.58,3.92,41.95,7.02,68.89,6.41c23.18-0.53,43.49-3.68,60.16-7.48"/>
	<path class="st5" d="M974.16,479.17c6.07-4.09,15.35-4.34,21.71-0.56"/>
	<path d="M1159.25,448.79c-4.75-6.79-9.49-13.57-14.24-20.36c-4.9-7.01-9.98-14.19-16.78-18.6c-7.22-4.68-15.73-5.8-23.99-6.45
		c-33.27-2.63-66.91,0.92-99.22,10.46c-3.64,4.3,0.54,13.8,5.55,15.44s10.27-0.72,15.18-2.74
		C1071.09,407.93,1121.47,414.36,1159.25,448.79z"/>
	<path d="M845.47,448.34c3.77-6.79,7.54-13.57,11.31-20.36c3.89-7.01,7.92-14.19,13.33-18.6c5.73-4.68,12.49-5.8,19.05-6.45
		c26.42-2.63,53.12,0.92,78.77,10.46c2.89,4.3-0.43,13.8-4.41,15.44c-3.98,1.64-8.15-0.72-12.05-2.74
		C915.46,407.48,875.46,413.92,845.47,448.34z"/>
	<path d="M1054.51,433.65c-15.73-0.63-31.93,11.15-30.4,23.88c1.42,11.73,17.36,20.06,31.61,18.69
		c12.25-1.18,25.86-9.77,25.53-21.81C1080.94,442.39,1066.89,434.15,1054.51,433.65z"/>
	<path d="M922.47,430.45c-15.69-0.63-31.85,11.19-30.32,23.97c1.41,11.77,17.31,20.14,31.53,18.76c12.21-1.18,25.79-9.8,25.47-21.89
		C948.82,439.21,934.81,430.94,922.47,430.45z"/>
	<path class="st6" d="M1058.96,449.66c-3.17,0-6.17,3.31-5.8,6.72c0.33,3.05,3.24,5.04,5.8,5.04c2.56,0,5.47-1.99,5.8-5.04
		C1065.13,452.96,1062.12,449.66,1058.96,449.66z"/>
	<path class="st6" d="M1090.97,441.11"/>
	<path class="st6" d="M917.99,449.29c-3.3,0-6.43,3.41-6.04,6.93c0.35,3.15,3.38,5.2,6.04,5.2s5.7-2.05,6.04-5.2
		C924.42,452.7,921.29,449.29,917.99,449.29z"/>
	<path class="st6" d="M903.97,448.87c-1.73,0-3.38,2.02-3.18,4.11c0.18,1.87,1.78,3.09,3.18,3.09s3-1.22,3.18-3.09
		C907.36,450.89,905.71,448.87,903.97,448.87z"/>
	<path class="st6" d="M1069.72,447.19c-1.73,0-3.38,2.02-3.18,4.11c0.18,1.87,1.78,3.09,3.18,3.09s3-1.22,3.18-3.09
		C1073.1,449.22,1071.45,447.19,1069.72,447.19z"/>
	<path d="M1072.7,428.83c6.26,0.4,12.34,2.06,18.6,2.42c8.06,0.47,16.16-1.24,24.08-3.19c12.08-2.98,24.99-7.24,32.29-17.43
		c-6.13,12.03-16.6,21.9-28.96,27.3c-11.73,5.13-24.65,6.22-37.28,7.24c-14.97,1.21-41.6,8.32-55.06,3.36
		C1036.5,435.59,1056.85,427.96,1072.7,428.83z"/>
	<path d="M902.01,427.44c-5.91,1.41-11.58,4.33-17.49,5.7c-7.62,1.76-15.4,0.9-23.02-0.3c-11.63-1.82-24.13-5.07-31.68-16.36
		c6.54,13.69,17.07,24.12,29.12,28.84c11.44,4.48,23.75,3.89,35.79,3.25c14.27-0.75,39.95,3.92,52.41-4.11
		C936.74,430.27,916.98,424.04,902.01,427.44z"/>
</g>
<path class="st2" d="M1141.21,455.85c-9.91-16.87-127.43-16.26-139.29,3.12c-0.31,0.5-0.53,1.03-0.7,1.57
	c-9.48-0.89-18.86-0.62-28.17,0.99c-0.14-0.96-0.43-1.88-0.93-2.74c-11.3-19.38-123.24-19.99-132.68-3.12
	c-6.88,12.29,34.29,45.33,81.84,39.03c23.44-3.11,43.65-15.14,49.88-25.75c1.2,0.41,2.69,0.54,4.4,0.23
	c8.19-1.48,16.48-1.84,24.88-0.87c0.72,0.08,1.4,0.09,2.04,0.05c5.97,10.79,27.61,23.33,52.81,26.51
	C1105.21,501.19,1148.43,468.15,1141.21,455.85z"/>
<path class="st7" d="M935.43,551.16c22.11-1.93,28.1,14.04,59.33,14.58c27.99,0.48,32.46-12.19,52.35-9.11
	c31.46,4.86,66.12,43.64,57.58,74.71c-5.78,21.04-31.24,38.07-48.86,32.8c-19.97-5.97-26.04-39.43-29.66-38.27
	c-5.5,1.77,26.63,73.03,1.74,103.86c-19.11,23.68-70.89,22.35-85.5,0c-18.83-28.81,24.99-91.13,13.96-98.4
	c-3.92-2.59-9.37,5.35-22.68,9.11c-22.48,6.35-53.22-3.22-59.33-20.04C866.04,597.5,900.87,554.18,935.43,551.16z"/>
<rect x="967.37" y="589" class="st8" width="85.63" height="28.03"/>
<text transform="matrix(1 0 0 1 967.373 599.0441)"><tspan x="0" y="0" class="st9 st10 st11">BRAT</tspan><tspan x="0" y="14.4" class="st9 st10 st11">SUMMER</tspan></text>
<path class="st12" d="M932.26,917.28c4.69-1.68,10.82,4.93,24.41,3.86c8.62-0.68,10.14-3.66,13.56-2.89
	c11.44,2.57-7.4,35.43-1.36,78.09c1.03,7.28,3.5,19.88-5.42,24.1c-4.02,1.9-10.42,2.14-13.56,0c-6.97-4.74,3.72-19.97,2.71-20.25
	c-0.9-0.24-4.21,13.17-17.63,20.25c-14.54,7.67-39.85,7.32-47.46-0.96c-2.26-2.46-4.1-6.86-1.36-9.64
	c5.96-6.04,26.25,3.07,39.32-2.89c4.8-2.19,10-7.03,10.85-26.99C937.81,945.08,923.63,920.37,932.26,917.28z"/>
<path class="st12" d="M1037.82,917.74c-4.67-1.68-10.75,4.93-24.26,3.86c-8.57-0.68-10.08-3.66-13.48-2.89
	c-11.37,2.57,7.35,35.43,1.35,78.09c-1.02,7.28-3.48,19.88,5.39,24.1c3.99,1.9,10.35,2.14,13.48,0c6.92-4.74-3.7-19.97-2.7-20.25
	c0.89-0.24,4.18,13.17,17.52,20.25c14.45,7.67,39.61,7.32,47.17-0.96c2.24-2.46,4.07-6.86,1.35-9.64
	c-5.93-6.04-26.09,3.07-39.08-2.89c-4.77-2.19-9.94-7.03-10.78-26.99C1032.3,945.54,1046.4,920.83,1037.82,917.74z"/>
<path class="st13" d="M936.63,760.06c11.31-3.59,16.1,6.11,41.24,7.14c24.77,1.01,34.22-7.83,45.16-7.14
	c51.93,3.31,84.86,218.04,58.91,224.79c-8.35,2.17-15.66-19.06-45.16-24.98c-17.08-3.43-25.59,1.49-35.34-5.35
	c-13.91-9.76-6.55-26.75-17.67-32.11c-14.4-6.94-34.8,17.62-49.09,10.7c-5.78-2.8-6.54-8.8-11.78-32.11
	c-7.81-34.75-8.32-31.27-9.82-41.03C908,826.96,910.95,768.21,936.63,760.06z"/>
<text transform="matrix(2.2657 1.5707 -0.5697 0.8218 1002.6622 906.4715)" class="st9 st10 st14">360</text>
<g>
	
		<ellipse transform="matrix(0.31 -0.9507 0.9507 0.31 790.9787 1634.9158)" class="st15" cx="1521.83" cy="272.53" rx="125.65" ry="261.08"/>
	<text transform="matrix(1.0015 0.4031 -0.3734 0.9277 1390.4916 195.3448)" class="st2 st16 st17">WHAT A BRAT !</text>
	<text transform="matrix(1.0796 0 0 1 863.585 798.4658)" class="st16 st17"> </text>
	<text transform="matrix(0.7171 0.3554 -0.444 0.896 1372.0535 288.3325)" class="st2 st16 st18">I LOVE IT . </text>
	
		<radialGradient id="SVGID_1_" cx="1695.5759" cy="-639.0106" r="89.7307" gradientTransform="matrix(0.8017 -6.352529e-04 -8.650414e-04 0.5886 -16.4762 520.446)" gradientUnits="userSpaceOnUse">
		<stop  offset="0" style="stop-color:#15CC00"/>
		<stop  offset="1" style="stop-color:#000000"/>
	</radialGradient>
	<polygon class="st19" points="1396.19,189.43 1348.3,168.53 1306.34,195.55 1318.71,155.62 1270.82,134.72 1326.35,130.94 
		1338.72,91 1360.68,128.6 1416.2,124.81 1374.24,151.83 	"/>
	
		<radialGradient id="SVGID_00000044871120842837370600000009435802194161803929_" cx="1964.3433" cy="792.2637" r="116.9834" gradientTransform="matrix(0.6369 0 0 0.4677 116.0741 546.3492)" gradientUnits="userSpaceOnUse">
		<stop  offset="0" style="stop-color:#15CC00"/>
		<stop  offset="1" style="stop-color:#000000"/>
	</radialGradient>
	<polygon style="fill:url(#SVGID_00000044871120842837370600000009435802194161803929_);" points="1414.08,970.22 1366.98,944.98 
		1319.74,970.08 1337.87,929.39 1290.76,904.15 1349.07,904.24 1367.19,863.54 1385.1,904.29 1443.41,904.37 1396.17,929.47 	"/>
	
		<radialGradient id="SVGID_00000096745344308712271030000010823387425913264569_" cx="1864.3473" cy="-585.5102" r="76.6029" gradientTransform="matrix(0.6369 0 0 0.4677 116.0741 546.3492)" gradientUnits="userSpaceOnUse">
		<stop  offset="0" style="stop-color:#15CC00"/>
		<stop  offset="1" style="stop-color:#000000"/>
	</radialGradient>
	<polygon style="fill:url(#SVGID_00000096745344308712271030000010823387425913264569_);" points="1353.16,279.94 1315.15,280.8 
		1304.53,307.61 1291.66,281.34 1253.65,282.21 1283.71,265.1 1270.84,238.82 1302.28,254.52 1332.34,237.42 1321.71,264.23 	"/>
	
		<radialGradient id="SVGID_00000058589793544925751450000004252697298841014667_" cx="888.0698" cy="-524.2081" r="62.2383" gradientTransform="matrix(0.6369 0 0 0.4677 116.0741 546.3492)" gradientUnits="userSpaceOnUse">
		<stop  offset="0" style="stop-color:#15CC00"/>
		<stop  offset="1" style="stop-color:#000000"/>
	</radialGradient>
	<polygon style="fill:url(#SVGID_00000058589793544925751450000004252697298841014667_);" points="710.73,326.65 684.32,315.11 
		661.23,329.99 668.01,307.99 641.6,296.45 672.2,294.38 678.98,272.38 691.1,293.11 721.7,291.04 698.6,305.92 	"/>
	
		<radialGradient id="SVGID_00000095305864173799509600000000393228947027990422_" cx="2453.031" cy="-290.0883" r="58.1444" gradientTransform="matrix(0.6369 0 0 0.4677 116.0741 546.3492)" gradientUnits="userSpaceOnUse">
		<stop  offset="0" style="stop-color:#15CC00"/>
		<stop  offset="1" style="stop-color:#000000"/>
	</radialGradient>
	<polygon style="fill:url(#SVGID_00000095305864173799509600000000393228947027990422_);" points="1716,418.5 1687.21,417.56 
		1677.1,437.38 1669.41,416.98 1640.62,416.05 1664.66,404.37 1656.98,383.98 1679.52,397.16 1703.56,385.49 1693.46,405.31 	"/>
</g>
</svg>
